<svg xmlns="http://www.w3.org/2000/svg" version="1.1" xmlns:xlink="http://www.w3.org/1999/xlink" xmlns:svgjs="http://svgjs.dev/svgjs" width="1500" height="1687" viewBox="0 0 1500 1687"><g transform="matrix(1,0,0,1,0,0)"><svg viewBox="0 0 320 360" data-background-color="#1e1939" preserveAspectRatio="xMidYMid meet" height="1687" width="1500" xmlns="http://www.w3.org/2000/svg" xmlns:xlink="http://www.w3.org/1999/xlink"><g id="tight-bounds" transform="matrix(1,0,0,1,0,0)"><svg viewBox="0 0 320 360" height="360" width="320"><g><svg></svg></g><g><svg viewBox="0 0 320 360" height="360" width="320"><g><path d="M320 187.111c0-45.764-20.238-86.866-52.203-114.908-28.043-31.964-69.145-52.203-114.908-52.203-84.302 0-152.889 68.587-152.889 152.889 0 45.753 20.231 86.848 52.185 114.891 28.043 31.975 69.152 52.22 114.926 52.22 0.299 0 0.59-0.021 0.889-0.021 0.299 0 0.59 0.021 0.889 0.021 83.456 0 151.111-67.655 151.111-151.111 0-0.299-0.021-0.59-0.021-0.889 0-0.299 0.021-0.59 0.021-0.889zM59.833 263.097c-15.093-21.255-24.071-47.143-24.256-75.097 0.48-72.928 59.492-131.943 132.423-132.423 27.954 0.185 53.845 9.163 75.097 24.256 24.366 23.627 39.57 56.64 39.57 93.056 0 71.559-58.219 129.778-129.778 129.778-36.416 0-69.429-15.204-93.056-39.57zM3.556 172.889c0-82.343 66.99-149.333 149.333-149.333 35.051 0 67.292 12.167 92.8 32.462-22.98-13.824-49.863-21.796-78.578-21.796-84.302 0-152.889 68.587-152.889 152.889 0 28.708 7.968 55.584 21.785 78.56-20.288-25.5-32.452-57.739-32.451-92.782zM167.111 318.667c-35.84 0-68.363-14.418-92.107-37.743 21.952 15.89 48.864 25.298 77.885 25.298 73.522 0 133.333-59.812 133.333-133.333 0-29.02-9.408-55.932-25.298-77.885 23.324 23.744 37.742 56.267 37.743 92.107 0 72.54-59.015 131.556-131.556 131.556z" fill="#e6ebef" fill-rule="nonzero" stroke="none" stroke-width="1" stroke-linecap="butt" stroke-linejoin="miter" stroke-miterlimit="10" stroke-dasharray="" stroke-dashoffset="0" font-family="none" font-weight="none" font-size="none" text-anchor="none" style="mix-blend-mode: normal" data-fill-palette-color="tertiary"></path></g><g transform="matrix(1,0,0,1,64,162.0295566502463)"><svg viewBox="0 0 192 35.940886699507395" height="35.940886699507395" width="192"><g><svg viewBox="0 0 192 35.940886699507395" height="35.940886699507395" width="192"><g><svg viewBox="0 0 192 35.940886699507395" height="35.940886699507395" width="192"><g id="textblocktransform"><svg viewBox="0 0 192 35.940886699507395" height="35.940886699507395" width="192" id="textblock"><g><svg viewBox="0 0 192 35.940886699507395" height="35.940886699507395" width="192"><g transform="matrix(1,0,0,1,0,0)"><svg width="192" viewBox="0.15 -36.5 253.73 47.5" height="35.940886699507395" data-palette-color="#fac64c"><path d="M3.95 0L0.15 0 12.35-31.95Q13.1-33.9 14.28-34.77 15.45-35.65 17.05-35.65L17.05-35.65Q18.7-35.65 19.9-34.8 21.1-33.95 21.8-32L21.8-32 34.1 0 30.15 0 26.65-9.2 7.45-9.2 3.95 0ZM15.45-30.75L8.55-12.4 25.55-12.4 18.75-30.75Q18.45-31.55 18.07-32 17.7-32.45 17.1-32.45L17.1-32.45Q16.45-32.45 16.13-32 15.8-31.55 15.45-30.75L15.45-30.75ZM50.15 0L37.55 0 37.55-3.05 49.55-3.05Q51.1-3.05 52.15-3.7 53.2-4.35 53.77-5.4 54.35-6.45 54.35-7.55L54.35-7.55Q54.35-8.65 53.85-9.58 53.35-10.5 52.4-11.1 51.45-11.7 50-11.7L50-11.7 44.65-11.7Q42.2-11.7 40.42-12.53 38.65-13.35 37.72-14.9 36.8-16.45 36.8-18.5L36.8-18.5Q36.8-20.35 37.7-21.95 38.6-23.55 40.25-24.53 41.9-25.5 44.1-25.5L44.1-25.5 55.65-25.5 55.65-22.45 44.45-22.45Q42.5-22.45 41.4-21.28 40.3-20.1 40.3-18.6L40.3-18.6Q40.3-17.15 41.4-16 42.5-14.85 44.7-14.85L44.7-14.85 49.7-14.85Q52.4-14.85 54.22-13.95 56.05-13.05 56.97-11.45 57.9-9.85 57.9-7.7L57.9-7.7Q57.9-5.75 56.9-3.98 55.9-2.2 54.17-1.1 52.45 0 50.15 0L50.15 0ZM77.7 0L72.09 0Q68.7 0 66.77-1.95 64.84-3.9 64.84-7.25L64.84-7.25 64.84-31.9 68.34-31.9 68.34-7.65Q68.34-5.45 69.47-4.25 70.59-3.05 72.8-3.05L72.8-3.05 77.7-3.05 77.7 0ZM77.8-22.45L60.4-22.45 60.4-25.5 77.8-25.5 77.8-22.45ZM86.89 0L83.39 0 83.39-18.25Q83.39-21.65 85.32-23.58 87.24-25.5 90.64-25.5L90.64-25.5 95.04-25.5 95.04-22.45 91.34-22.45Q89.14-22.45 88.02-21.25 86.89-20.05 86.89-17.85L86.89-17.85 86.89 0ZM111.44 0.65L111.44 0.65Q107.59 0.65 104.59-1.13 101.59-2.9 99.89-5.95 98.19-9 98.19-12.75L98.19-12.75Q98.19-16.5 99.89-19.55 101.59-22.6 104.59-24.38 107.59-26.15 111.44-26.15L111.44-26.15Q115.29-26.15 118.27-24.38 121.24-22.6 122.97-19.55 124.69-16.5 124.69-12.75L124.69-12.75Q124.69-9 122.97-5.95 121.24-2.9 118.27-1.13 115.29 0.65 111.44 0.65ZM111.44-2.4L111.44-2.4Q114.29-2.4 116.49-3.78 118.69-5.15 119.92-7.5 121.14-9.85 121.14-12.75L121.14-12.75Q121.14-15.65 119.92-18 118.69-20.35 116.49-21.73 114.29-23.1 111.44-23.1L111.44-23.1Q108.54-23.1 106.37-21.73 104.19-20.35 102.97-18 101.74-15.65 101.74-12.75L101.74-12.75Q101.74-9.85 102.97-7.5 104.19-5.15 106.37-3.78 108.54-2.4 111.44-2.4ZM143.84-26.15L143.84-26.15Q140.34-26.15 137.39-24.6 134.44-23.05 132.69-20.05 130.94-17.05 130.94-12.8L130.94-12.8 130.94 11 134.44 11 134.44-5.25 134.54-5.25Q135.39-3.55 136.89-2.23 138.39-0.9 140.29-0.15 142.19 0.6 144.29 0.6L144.29 0.6Q147.74 0.6 150.56-1 153.39-2.6 155.09-5.53 156.79-8.45 156.79-12.55L156.79-12.55Q156.79-15.75 155.79-18.28 154.79-20.8 153.01-22.55 151.24-24.3 148.89-25.23 146.54-26.15 143.84-26.15ZM143.79-23.1L143.79-23.1Q146.34-23.1 148.49-21.88 150.64-20.65 151.94-18.32 153.24-16 153.24-12.75L153.24-12.75Q153.24-9.6 151.94-7.28 150.64-4.95 148.51-3.7 146.39-2.45 143.89-2.45L143.89-2.45Q141.39-2.45 139.24-3.68 137.09-4.9 135.79-7.2 134.49-9.5 134.49-12.8L134.49-12.8Q134.49-16.1 135.76-18.4 137.04-20.7 139.16-21.9 141.29-23.1 143.79-23.1ZM174.79 0.65L174.79 0.65Q171.59 0.65 168.94-0.73 166.29-2.1 164.71-4.65 163.14-7.2 163.14-10.65L163.14-10.65 163.14-25.5 166.64-25.5 166.64-10.8Q166.64-8.15 167.81-6.25 168.99-4.35 170.84-3.38 172.69-2.4 174.79-2.4L174.79-2.4Q176.94-2.4 178.81-3.4 180.69-4.4 181.84-6.28 182.99-8.15 182.99-10.8L182.99-10.8 182.99-25.5 186.49-25.5 186.49-10.65Q186.49-7.2 184.91-4.65 183.34-2.1 180.71-0.73 178.09 0.65 174.79 0.65ZM197.68 0L194.18 0 194.18-36.5 197.68-36.5 197.68 0ZM217.43 0L204.83 0 204.83-3.05 216.83-3.05Q218.38-3.05 219.43-3.7 220.48-4.35 221.06-5.4 221.63-6.45 221.63-7.55L221.63-7.55Q221.63-8.65 221.13-9.58 220.63-10.5 219.68-11.1 218.73-11.7 217.28-11.7L217.28-11.7 211.93-11.7Q209.48-11.7 207.71-12.53 205.93-13.35 205.01-14.9 204.08-16.45 204.08-18.5L204.08-18.5Q204.08-20.35 204.98-21.95 205.88-23.55 207.53-24.53 209.18-25.5 211.38-25.5L211.38-25.5 222.93-25.5 222.93-22.45 211.73-22.45Q209.78-22.45 208.68-21.28 207.58-20.1 207.58-18.6L207.58-18.6Q207.58-17.15 208.68-16 209.78-14.85 211.98-14.85L211.98-14.85 216.98-14.85Q219.68-14.85 221.51-13.95 223.33-13.05 224.26-11.45 225.18-9.85 225.18-7.7L225.18-7.7Q225.18-5.75 224.18-3.98 223.18-2.2 221.46-1.1 219.73 0 217.43 0L217.43 0ZM250.68 0L244.43 0Q240.33 0 237.1-1.53 233.88-3.05 232-5.9 230.13-8.75 230.13-12.75L230.13-12.75Q230.13-16.45 231.63-19.48 233.13-22.5 235.85-24.3 238.58-26.1 242.23-26.1L242.23-26.1Q245.98-26.1 248.58-24.45 251.18-22.8 252.53-20 253.88-17.2 253.88-13.7L253.88-13.7Q253.88-13.2 253.83-12.6 253.78-12 253.68-11.55L253.68-11.55 233.83-11.55Q233.98-8.75 235.43-6.85 236.88-4.95 239.2-4 241.53-3.05 244.23-3.05L244.23-3.05 250.68-3.05 250.68 0ZM233.83-14.05L233.83-14.05 250.33-14.05Q250.33-15.05 250.13-16.28 249.93-17.5 249.4-18.7 248.88-19.9 247.95-20.9 247.03-21.9 245.6-22.53 244.18-23.15 242.13-23.15L242.13-23.15Q240.23-23.15 238.68-22.35 237.13-21.55 236.08-20.23 235.03-18.9 234.45-17.3 233.88-15.7 233.83-14.05Z" opacity="1" transform="matrix(1,0,0,1,0,0)" fill="#fac64c" class="wordmark-text-0" data-fill-palette-color="primary" id="text-0"></path></svg></g></svg></g></svg></g></svg></g><g></g></svg></g></svg></g></svg></g><defs></defs></svg><rect width="320" height="360" fill="none" stroke="none" visibility="hidden"></rect></g></svg></g></svg>